<?xml version="1.0" encoding="utf-8"?>
<svg xmlns="http://www.w3.org/2000/svg" viewBox="67 42.789 377.76 420.837">
  <title>HTML5 Logo</title>
  <path fill="#e44d26" d="M 107.6 420 L 74.6 49.6 L 437.4 49.6 L 404.4 419.8 L 255.7 461"/>
  <path fill="#f16529" d="M 256 439.5 L 256 90 L 404.3 90 L 376 406"/>
  <path fill="#ebebeb" d="M 142 135.3 L 256 135.3 L 256 180.7 L 191.8 180.7 L 196 227.2 L 256 227.2 L 256 272.5 L 154.4 272.5 M 156.4 295.3 L 202 295.3 L 205.2 331.6 L 256 345.2 L 256 392.6 L 162.8 366.6"/>
  <path fill="#fff" d="M 369.6 135.3 L 255.8 135.3 L 255.8 180.7 L 365.4 180.7 M 361.3 227.2 L 255.8 227.2 L 255.8 272.6 L 311.8 272.6 L 306.5 331.6 L 255.8 345.2 L 255.8 392.4 L 348.8 366.6"/>
</svg>