<?xml version="1.0" encoding="UTF-8"?>
<svg xmlns="http://www.w3.org/2000/svg" xmlns:xlink="http://www.w3.org/1999/xlink" width="90px" height="100px" viewBox="0 0 90 100" version="1.1">
<g id="surface1">
<path style=" stroke:none;fill-rule:nonzero;fill:rgb(89.411765%,30.19608%,14.901961%);fill-opacity:1;" d="M 9.679688 89.632812 L 1.820312 1.617188 L 88.234375 1.617188 L 80.375 89.585938 L 44.957031 99.375 "/>
<path style=" stroke:none;fill-rule:nonzero;fill:rgb(94.509804%,39.607844%,16.078432%);fill-opacity:1;" d="M 45.027344 94.265625 L 45.027344 11.21875 L 80.351562 11.21875 L 73.609375 86.308594 "/>
<path style=" stroke:none;fill-rule:nonzero;fill:rgb(92.156863%,92.156863%,92.156863%);fill-opacity:1;" d="M 17.875 21.984375 L 45.027344 21.984375 L 45.027344 32.769531 L 29.738281 32.769531 L 30.738281 43.820312 L 45.027344 43.820312 L 45.027344 54.585938 L 20.828125 54.585938 M 21.304688 60.003906 L 32.167969 60.003906 L 32.929688 68.628906 L 45.027344 71.859375 L 45.027344 83.121094 L 22.828125 76.945312 "/>
<path style=" stroke:none;fill-rule:nonzero;fill:rgb(100%,100%,100%);fill-opacity:1;" d="M 72.085938 21.984375 L 44.980469 21.984375 L 44.980469 32.769531 L 71.085938 32.769531 M 70.109375 43.820312 L 44.980469 43.820312 L 44.980469 54.609375 L 58.320312 54.609375 L 57.058594 68.628906 L 44.980469 71.859375 L 44.980469 83.074219 L 67.132812 76.945312 "/>
</g>
</svg>
