<?xml version="1.0" encoding="UTF-8"?>
<svg version="1.1" xmlns="http://www.w3.org/2000/svg" width="236" height="480">
<path d="M0 0 C1.3171701 -0.00021904 1.3171701 -0.00021904 2.66094971 -0.0004425 C5.57200567 0.00025581 8.48299815 0.00804444 11.39404297 0.01586914 C13.4090064 0.01773361 15.42397028 0.01915738 17.43893433 0.02015686 C22.74901577 0.02397977 28.05906997 0.03380815 33.36914062 0.04486084 C38.78498974 0.0550798 44.20084325 0.05965552 49.61669922 0.06469727 C60.24822162 0.0754306 70.87972378 0.09250433 81.51123047 0.11352539 C85.05520339 7.7041644 88.51234264 15.31145851 91.71826172 23.05102539 C92.08795578 23.93725586 92.45764984 24.82348633 92.83854675 25.73657227 C94.00258926 28.52793261 95.16338906 31.32062477 96.32373047 34.11352539 C97.84964669 37.78078799 99.37745724 41.44725757 100.90576172 45.11352539 C101.46676071 46.46269043 101.46676071 46.46269043 102.03909302 47.83911133 C104.02196689 52.5957553 106.03434957 57.33740948 108.09082031 62.06274414 C108.71750862 63.50617188 108.71750862 63.50617188 109.3568573 64.97875977 C110.15926275 66.82200916 110.96628498 68.66325755 111.77851868 70.50219727 C112.13721542 71.32655273 112.49591217 72.1509082 112.86547852 73.00024414 C113.18405319 73.72429443 113.50262787 74.44834473 113.83085632 75.19433594 C114.51123047 77.11352539 114.51123047 77.11352539 114.51123047 80.11352539 C101.64123047 80.11352539 88.77123047 80.11352539 75.51123047 80.11352539 C70.9715363 70.38560932 66.58903405 60.73654144 62.57373047 50.80102539 C62.08066406 49.59768555 61.58759766 48.3943457 61.07958984 47.15454102 C57.51123047 38.36974505 57.51123047 38.36974505 57.51123047 36.11352539 C54.04623047 36.60852539 54.04623047 36.60852539 50.51123047 37.11352539 C50.95515137 38.16741455 51.39907227 39.22130371 51.85644531 40.30712891 C53.51167791 44.23968905 55.16163632 48.17444415 56.81005859 52.10986328 C57.52250151 53.80870347 58.23634906 55.50695533 58.95166016 57.20458984 C59.98308507 59.65314663 61.00934121 62.10381607 62.03466797 64.55493164 C62.51134415 65.68192223 62.51134415 65.68192223 62.99765015 66.8316803 C63.29781036 67.55189865 63.59797058 68.272117 63.90722656 69.01416016 C64.16925873 69.63815201 64.43129089 70.26214386 64.70126343 70.90504456 C65.80628288 73.91802429 66.62958899 77.02778023 67.51123047 80.11352539 C53.15623047 80.60852539 53.15623047 80.60852539 38.51123047 81.11352539 C39.82220703 84.15506836 39.82220703 84.15506836 41.15966797 87.25805664 C48.63731925 104.63092817 56.02553408 122.03946384 63.32373047 139.48852539 C63.71913025 140.43361969 64.11453003 141.37871399 64.52191162 142.35244751 C65.65058488 145.05115116 66.77843596 147.7501961 67.90576172 150.44946289 C68.24159775 151.25323868 68.57743378 152.05701447 68.92344666 152.88514709 C69.52991748 154.33906372 70.1345169 155.79376322 70.73672485 157.24945068 C71.3921205 158.82685236 72.06268252 160.39793951 72.73657227 161.9675293 C73.51123047 164.11352539 73.51123047 164.11352539 73.51123047 167.11352539 C63.16692283 167.18305326 52.82267084 167.23635087 42.47817707 167.26896191 C37.67473913 167.28461403 32.87146113 167.30584409 28.06811523 167.33984375 C23.43211992 167.37245328 18.79627839 167.39038182 14.16017723 167.39815712 C12.39194506 167.40369776 10.62372124 167.4145173 8.85555458 167.43071556 C6.37772087 167.45251117 3.90052166 167.45549145 1.42260742 167.45410156 C0.69252472 167.46488739 -0.03755798 167.47567322 -0.7897644 167.48678589 C-5.20524426 167.46000757 -7.97517708 166.82040174 -11.48876953 164.11352539 C-24.92630318 145.44178159 -19.80520559 110.88550792 -19.74951172 89.03491211 C-19.73811803 84.52046943 -19.74488716 80.00626259 -19.75639534 75.49182796 C-19.89365022 12.03532231 -19.89365022 12.03532231 -10.48876953 1.11352539 C-7.21537436 -0.52317219 -3.59656146 -0.01549737 0 0 Z " fill="#070707" transform="translate(35.48876953125,156.886474609375)"/>
<path d="M0 0 C7.59 0 15.18 0 23 0 C25.22706604 5.32021332 25.22706604 5.32021332 27.45413208 10.64042664 C27.96627762 11.86388542 27.96627762 11.86388542 28.48876953 13.11206055 C36.82958984 33.03735352 45.17041016 52.96264648 53.51123047 72.88793945 C53.85266083 73.70357864 54.19409119 74.51921783 54.54586792 75.35957336 C54.92518463 76.26571884 55.30450134 77.17186432 55.6953125 78.10546875 C56.78585938 80.71066406 57.87640625 83.31585938 59 86 C71.87 86.495 71.87 86.495 85 87 C87.63043828 92.26087656 90.13340293 97.4563746 92.41796875 102.859375 C92.72068192 103.57103821 93.02339508 104.28270142 93.33528137 105.01593018 C93.96755018 106.50438378 94.59853563 107.99338315 95.22827148 109.48291016 C96.19169154 111.75990649 97.1610284 114.03432176 98.13085938 116.30859375 C98.74775142 117.76287005 99.36430015 119.21729203 99.98046875 120.671875 C100.26899216 121.34796814 100.55751556 122.02406128 100.8547821 122.72064209 C102.16002237 125.8191893 103.18124751 128.72499004 104 132 C85.52 132 67.04 132 48 132 C51.63 140.25 55.26 148.5 59 157 C61.10541722 161.99215871 63.20738716 166.98187616 65.2711792 171.99075317 C66.81476481 175.73617444 68.36805991 179.47756315 69.921875 183.21875 C70.24582245 183.99887955 70.5697699 184.77900909 70.90353394 185.58277893 C75.73700897 197.20085045 80.68755889 208.76975336 85.62939453 220.34204102 C85.98112732 221.16679932 86.33286011 221.99155762 86.69525146 222.84130859 C87.35503985 224.38822906 88.01583098 225.93472236 88.67779541 227.48071289 C89.8801807 230.30038464 91.03015562 233.09046687 92 236 C91.01 236 90.02 236 89 236 C87.4140625 234.375 87.4140625 234.375 85.625 232 C84.92632812 231.0925 84.22765625 230.185 83.5078125 229.25 C83.1149707 228.73695313 82.72212891 228.22390625 82.31738281 227.6953125 C79.7697969 224.41687726 77.12641307 221.21533888 74.5 218 C70.3608549 212.9150667 66.24369462 207.81412545 62.15625 202.6875 C59.28723143 199.11162179 56.39344878 195.55612073 53.5 192 C49.3619176 186.91419351 45.24370421 181.81413749 41.15625 176.6875 C38.28723143 173.11162179 35.39344878 169.55612073 32.5 166 C28.3619176 160.91419351 24.24370421 155.81413749 20.15625 150.6875 C17.28723143 147.11162179 14.39344878 143.55612073 11.5 140 C7.3619176 134.91419351 3.24370421 129.81413749 -0.84375 124.6875 C-4.27688639 120.40851841 -7.74404076 116.1572209 -11.20727539 111.90258789 C-14.92609619 107.33105078 -18.61672271 102.73865258 -22.2734375 98.1171875 C-23.97280572 96.03334683 -25.7545379 94.05208387 -27.5625 92.0625 C-28.366875 91.051875 -29.17125 90.04125 -30 89 C-29.67 88.01 -29.34 87.02 -29 86 C-7.55 86.33 13.9 86.66 36 87 C33.56625 81.286875 31.1325 75.57375 28.625 69.6875 C22.45377323 55.17409487 16.30503122 40.65127865 10.2008667 26.10952759 C9.40144623 24.20593171 8.60103385 22.30275208 7.79962158 20.3999939 C6.6760427 17.73139897 5.55624467 15.06124949 4.4375 12.390625 C4.10285736 11.59757462 3.76821472 10.80452423 3.4234314 9.98744202 C2.96439926 8.88812599 2.96439926 8.88812599 2.49609375 7.76660156 C2.22982178 7.13224182 1.9635498 6.49788208 1.68920898 5.84429932 C1 4 1 4 0 0 Z " fill="#EFD225" transform="translate(84,244)"/>
<path d="M0 0 C3.12215428 1.35727511 4.93163119 2.78281963 7.06640625 5.421875 C7.6284375 6.11023438 8.19046875 6.79859375 8.76953125 7.5078125 C9.36121094 8.24773438 9.95289062 8.98765625 10.5625 9.75 C11.18382813 10.51570312 11.80515625 11.28140625 12.4453125 12.0703125 C16.62379775 17.23550371 20.73566743 22.45236312 24.8190918 27.69287109 C29.5783234 33.78337442 34.51236505 39.72716172 39.4375 45.68359375 C46.99214317 54.82314155 54.4516795 64.04108954 61.84375 73.3125 C64.71276857 76.88837821 67.60655122 80.44387927 70.5 84 C74.6380824 89.08580649 78.75629579 94.18586251 82.84375 99.3125 C85.71276857 102.88837821 88.60655122 106.44387927 91.5 110 C95.63166506 115.07791941 99.74425457 120.16945006 103.82421875 125.2890625 C107.36586728 129.70181668 110.94360699 134.08533908 114.52148438 138.46875 C122 147.64815546 122 147.64815546 122 150 C84.05 150 46.1 150 7 150 C-12 106.81818182 -12 106.81818182 -12 104 C15.225 103.505 15.225 103.505 43 103 C40.40125 96.791875 37.8025 90.58375 35.125 84.1875 C33.22512054 79.64846039 33.22512054 79.64846039 31.32524109 75.10942078 C27.97198523 67.09825923 24.61804247 59.08738692 21.26196289 51.07740784 C19.66207777 47.25887569 18.06256426 43.44018793 16.46307373 39.62149048 C15.70727672 37.8173564 14.95130085 36.01329724 14.19512939 34.20932007 C9.42238752 22.82289872 4.68620046 11.42232506 0 0 Z " fill="#EFD226" transform="translate(37,0)"/>
<path d="M0 0 C12.72570322 -0.11571159 25.45128185 -0.20462295 38.17740345 -0.25906086 C44.08631243 -0.28518484 49.99486223 -0.32063467 55.90356445 -0.37719727 C61.60292287 -0.43141612 67.30193525 -0.46139941 73.0015316 -0.47438622 C75.17894631 -0.48364425 77.35634151 -0.50172256 79.53360939 -0.52865028 C82.57727005 -0.56480537 85.61949019 -0.56995095 88.66333008 -0.56762695 C89.56891663 -0.58560333 90.47450317 -0.60357971 91.40753174 -0.62210083 C93.71362449 -0.60297412 95.7600244 -0.54753768 98 0 C101.06931896 3.51125977 101.38340846 6.41972261 101.3984375 11 C101.40230469 12.134375 101.40617187 13.26875 101.41015625 14.4375 C101.39855469 15.613125 101.38695312 16.78875 101.375 18 C101.38660156 19.175625 101.39820313 20.35125 101.41015625 21.5625 C101.40628906 22.696875 101.40242188 23.83125 101.3984375 25 C101.39505371 26.03125 101.39166992 27.0625 101.38818359 28.125 C100.91585333 31.62321455 100.27622112 33.28246478 98 36 C95.1490493 36.48813025 92.89124244 36.63459183 90.0402832 36.56762695 C89.23029877 36.56835709 88.42031433 36.56908722 87.58578491 36.56983948 C84.90677058 36.56635417 82.22949202 36.52745043 79.55078125 36.48828125 C77.6941981 36.47895643 75.83760265 36.47183876 73.98100281 36.46684265 C69.09310978 36.4477467 64.20595901 36.39862361 59.31835938 36.34332275 C54.33148236 36.2921862 49.34448547 36.26934058 44.35742188 36.24414062 C34.57128836 36.19050732 24.78570589 36.10516316 15 36 C14.05259443 33.95431101 13.10597097 31.9082598 12.15966797 29.86206055 C11.63243134 28.72270554 11.1051947 27.58335052 10.5619812 26.4094696 C8.34638535 21.57329956 6.22166792 16.70115939 4.125 11.8125 C3.7228125 10.88630859 3.320625 9.96011719 2.90625 9.00585938 C2.33777344 7.68231445 2.33777344 7.68231445 1.7578125 6.33203125 C1.24951904 5.15217651 1.24951904 5.15217651 0.73095703 3.94848633 C0 2 0 2 0 0 Z " fill="#090909" transform="translate(114,244)"/>
<path d="M0 0 C26.73 0 53.46 0 81 0 C84.38091068 9.01576182 84.38091068 9.01576182 84.3984375 12.875 C84.40230469 13.71546875 84.40617187 14.5559375 84.41015625 15.421875 C84.39855469 16.27265625 84.38695312 17.1234375 84.375 18 C84.38660156 18.85078125 84.39820313 19.7015625 84.41015625 20.578125 C84.40628906 21.41859375 84.40242188 22.2590625 84.3984375 23.125 C84.39505371 23.87007812 84.39166992 24.61515625 84.38818359 25.3828125 C84 28 84 28 81 36 C58.89 36 36.78 36 14 36 C11.69 30.43125 9.38 24.8625 7 19.125 C6.26910156 17.36816895 5.53820312 15.61133789 4.78515625 13.80126953 C4.21065808 12.41189936 3.63642128 11.02242107 3.0625 9.6328125 C2.60907227 8.54697876 2.60907227 8.54697876 2.14648438 7.43920898 C0 2.2281436 0 2.2281436 0 0 Z " fill="#0A0A0A" transform="translate(125,157)"/>
<path d="M0 0 C9.33575505 -0.09261568 18.67135236 -0.16372178 28.00746632 -0.20724869 C32.34246338 -0.22813783 36.67714652 -0.25647919 41.01196289 -0.30175781 C45.19409463 -0.345169 49.37592414 -0.36912711 53.55826378 -0.37950897 C55.1551254 -0.38690892 56.75197018 -0.40135922 58.34870338 -0.42292023 C60.58285088 -0.45189285 62.81574419 -0.4559588 65.05004883 -0.45410156 C66.95866447 -0.46742523 66.95866447 -0.46742523 68.90583801 -0.48101807 C72 0 72 0 73.89213562 1.89312744 C76.59967225 7.0421644 76.1831054 12.69718237 76.1875 18.375 C76.19974609 19.2 76.21199219 20.025 76.22460938 20.875 C76.23674683 25.9727303 75.76694592 30.20134687 74 35 C72 37 72 37 69.59555054 37.24050903 C68.08331406 37.2338472 68.08331406 37.2338472 66.54052734 37.22705078 C65.39949554 37.22689972 64.25846375 37.22674866 63.08285522 37.22659302 C61.22813095 37.21110916 61.22813095 37.21110916 59.3359375 37.1953125 C58.07359283 37.1924826 56.81124817 37.18965271 55.51065063 37.18673706 C52.15353056 37.17742131 48.79668088 37.15944835 45.43963623 37.1373291 C42.01446878 37.1168755 38.58927341 37.1077364 35.1640625 37.09765625 C28.44263329 37.07556458 21.72133227 37.04206377 15 37 C14.05124223 35.12347719 13.1049532 33.24570611 12.15966797 31.36743164 C11.63243134 30.32188614 11.1051947 29.27634064 10.5619812 28.19911194 C8.20127427 23.3641205 6.1450383 18.4223224 4.125 13.4375 C3.7228125 12.46748047 3.320625 11.49746094 2.90625 10.49804688 C2.52726563 9.56927734 2.14828125 8.64050781 1.7578125 7.68359375 C1.24951904 6.43920532 1.24951904 6.43920532 0.73095703 5.16967773 C0 3 0 3 0 0 Z " fill="#111111" transform="translate(133,287)"/>
<path d="M0 0 C8.81424692 -0.06946967 17.62839978 -0.12279566 26.4428606 -0.15543652 C30.53565443 -0.17110146 34.62826114 -0.19235458 38.72094727 -0.22631836 C42.66964752 -0.25888267 46.61816765 -0.27684677 50.56699181 -0.28463173 C52.07451908 -0.29018054 53.58203636 -0.30101595 55.08948708 -0.31719017 C57.19895459 -0.3389263 59.30767509 -0.34196864 61.41723633 -0.34057617 C62.61858719 -0.34723801 63.81993805 -0.35389984 65.05769348 -0.36076355 C68 0 68 0 69.84892273 1.33378601 C73.24248577 6.2460559 72.1842908 12.67546679 72.1875 18.375 C72.19974609 19.51195312 72.21199219 20.64890625 72.22460938 21.8203125 C72.22654297 22.91859375 72.22847656 24.016875 72.23046875 25.1484375 C72.23457764 26.15052246 72.23868652 27.15260742 72.24291992 28.18505859 C71.98474654 31.17675623 71.35195432 33.32581117 70 36 C67.47255912 37.26372044 65.73619692 37.12022795 62.90771484 37.11352539 C61.31629166 37.11341209 61.31629166 37.11341209 59.69271851 37.11329651 C57.96923691 37.10555458 57.96923691 37.10555458 56.2109375 37.09765625 C55.03737701 37.0962413 53.86381653 37.09482635 52.6546936 37.09336853 C48.89477015 37.08775689 45.13490555 37.07520238 41.375 37.0625 C38.83073002 37.0574865 36.28645912 37.05292333 33.7421875 37.04882812 C27.49477147 37.03778368 21.24738994 37.02103418 15 37 C13.70131799 34.06250499 12.40265454 31.12500181 11.10412598 28.18743896 C10.35061587 26.48332963 9.596864 24.77932693 8.84216309 23.07574463 C0 3.11547707 0 3.11547707 0 0 Z " fill="#0A0A0A" transform="translate(143,200)"/>
<path d="M0 0 C8.83155316 -0.02314123 17.66309594 -0.0409242 26.49467278 -0.05181217 C30.59525496 -0.05703709 34.69581645 -0.06412768 38.79638672 -0.07543945 C42.75154957 -0.08628218 46.70669248 -0.09227979 50.66186905 -0.09487724 C52.17298827 -0.09672898 53.68410637 -0.10034482 55.19521713 -0.10573006 C57.30708958 -0.11295886 59.41887895 -0.11399016 61.53076172 -0.11352539 C62.73433319 -0.115746 63.93790466 -0.11796661 65.177948 -0.12025452 C68 0 68 0 70 1 C69.67 1.66 69.34 2.32 69 3 C35.835 2.505 35.835 2.505 2 2 C1.67 2.66 1.34 3.32 1 4 C0.67 2.68 0.34 1.36 0 0 Z " fill="#777777" transform="translate(143,200)"/>
<path d="M0 0 C2 2 2 2 2 5 C-10.87 5 -23.74 5 -37 5 C-37 4.01 -37 3.02 -37 2 C-18.685 2.495 -18.685 2.495 0 3 C0 2.01 0 1.02 0 0 Z " fill="#7E7E7E" transform="translate(148,232)"/>
<path d="M0 0 C4.38635744 2.19317872 5.51256905 3.91350629 8 8 C7.01 8 6.02 8 5 8 C4.67 8.66 4.34 9.32 4 10 C2.68 6.7 1.36 3.4 0 0 Z " fill="#F6E78B" transform="translate(37,0)"/>
<path d="M0 0 C1.89213369 2.38573379 3.02391783 4.07175348 4 7 C3.01 7 2.02 7 1 7 C-1.1875 4 -1.1875 4 -3 1 C-2.01 0.67 -1.02 0.34 0 0 Z " fill="#F7EA9C" transform="translate(172,473)"/>
</svg>
